<svg width="525" height="258" viewBox="0 0 525 258" fill="none" xmlns="http://www.w3.org/2000/svg">
<path opacity="0.1" d="M2.4509 115.857C8.09075 106.636 20.8448 108.243 29.8892 113.057C38.9337 117.87 47.9586 125.055 57.9122 123.675C66.3049 122.51 73.1868 115.185 76.9048 106.734C80.6227 98.2834 81.7137 88.7546 82.76 79.4219C84.0749 67.6969 85.3888 55.9644 86.7018 44.2245C87.1829 39.9319 87.7508 35.4013 90.1623 32.0048C93.3487 27.5246 99.19 26.1469 104.186 27.4938C109.183 28.8406 113.443 32.4528 117.089 36.4822C128.766 49.3851 135.382 66.827 145.59 81.1859C147.669 84.1092 150.016 86.9989 153.121 88.4102C157.597 90.4403 162.736 89.0038 167.109 86.7441C181.376 79.3826 190.961 64.3601 200.38 50.3427C204.962 43.53 210.549 36.2441 218.172 35.5021C226.193 34.7041 233.156 41.5448 237.87 48.7886C252.999 72.0968 256.241 103.917 274.518 124.246C276.787 126.766 279.29 129.096 282.175 130.661C283.126 131.176 284.118 131.611 285.14 131.963C301.086 137.488 306.401 159.665 294.607 172.814C294.352 173.094 294.092 173.374 293.829 173.654C292.078 175.505 290.094 177.255 287.728 177.807C285.526 178.316 283.252 177.728 281.07 177.093C267.121 173.018 253.34 166.791 238.919 167.093C224.886 167.373 211.576 173.861 197.7 176.196C188.37 177.767 178.878 177.454 169.445 177.115C138.026 175.984 106.615 174.668 75.2094 173.167C59.6215 172.45 44.028 171.767 28.4429 170.969C16.4358 170.344 8.78734 168.969 7.39416 155.022C6.17443 142.808 -4.78075 127.685 2.4509 115.857Z" fill="white"/>
<path d="M220.5 220C262.198 220 296 215.299 296 209.5C296 203.701 262.198 199 220.5 199C178.803 199 145 203.701 145 209.5C145 215.299 178.803 220 220.5 220Z" fill="#30374E"/>
<path d="M42 164.116C42 164.116 45.6247 163.404 48 165.509C48 165.509 46.4732 166.695 42.8815 165.381L42 164.116Z" fill="#F8F9FA"/>
<path d="M41.0965 164C41.0965 164 39.1942 166.961 40.4008 170C40.4008 170 42.0453 169.131 41.999 165.336L41.0965 164Z" fill="#F8F9FA"/>
<path d="M39 159.218C39 159.218 40.2159 156.082 46 159.873C46 159.873 45.3778 161.969 42.92 161.999C40.4622 162.03 39.7259 160.76 39 159.218Z" fill="#F8F9FA"/>
<path d="M38.0051 159C38.0051 159 34.8281 158.854 35.0073 165.99C35.0073 165.99 37.0352 166.27 38.3009 163.92C39.5666 161.569 38.8954 160.355 38.0051 159Z" fill="#F8F9FA"/>
<path d="M36 153.493C36 153.493 37.405 149.244 44 151.84C44 151.84 42.8479 155.731 36.7503 154.878L36 153.493Z" fill="#F8F9FA"/>
<path d="M34 146.686C34 146.686 36.9307 141.378 43 145.685C43 145.685 41.2853 150.594 34.6094 148.464L34 146.686Z" fill="#F8F9FA"/>
<path d="M33 139.757C33 139.757 36.3082 134.105 42 138.987C42 138.987 38.8411 143.969 33.0707 141.121L33 139.757Z" fill="#F8F9FA"/>
<path d="M32 133.299C32 133.299 35.4189 128.723 41 132.483C41 132.483 37.0667 136.586 32.0697 134.315L32 133.299Z" fill="#F8F9FA"/>
<path d="M31 127.29C31 127.29 35.0276 120.079 41 124.355C41 124.355 36.5835 130.618 31.0858 128.599L31 127.29Z" fill="#F8F9FA"/>
<path d="M32 120.351C32 120.351 35.8078 114.336 41 118.423C41 118.423 36.349 123.727 32.0598 121.418L32 120.351Z" fill="#F8F9FA"/>
<path d="M33.1191 113.419C33.1191 113.419 37.6191 107.444 42 109.39C42 109.39 37.32 115.727 33 114.931L33.1191 113.419Z" fill="#F8F9FA"/>
<path d="M34.3243 107.658C34.3243 107.658 39.5613 100.28 43 102.374C43 102.374 39.1647 108.075 34 109L34.3243 107.658Z" fill="#F8F9FA"/>
<path d="M36.571 101.137C36.571 101.137 41.2396 94.9699 45 96.1501C45 96.1501 41.071 102.482 36 103L36.571 101.137Z" fill="#F8F9FA"/>
<path d="M38.1687 94.647C38.1687 94.647 43.4744 88.2122 46 89.0806C46 89.0806 42.3071 96.0651 38 95.9995L38.1687 94.647Z" fill="#F8F9FA"/>
<path d="M40 88.3571C40 88.3571 44.9853 81.6937 48 82.011C48 82.011 45.1154 87.8577 40.0496 89L40 88.3571Z" fill="#F8F9FA"/>
<path d="M42.0789 80.3704C42.0789 80.3704 46.4452 75.1456 49 75C49 75 45.7503 81.8152 42 82L42.0789 80.3704Z" fill="#F8F9FA"/>
<path d="M43.3999 74.981L46.9425 64C46.9425 64 47.7873 73.6437 43 77L43.3999 74.981Z" fill="#F8F9FA"/>
<path d="M44.4266 63.2316C44.4266 63.2316 44.5677 54.6624 44 54C44 54 47.9999 60.8855 44.6864 67L44.4266 63.2316Z" fill="#F8F9FA"/>
<path d="M36.3393 153.388C36.3393 153.388 31.5215 151.131 29 157.505C29 157.505 33.2963 159.672 37 154.937L36.3393 153.388Z" fill="#F8F9FA"/>
<path d="M33.4144 146.293C33.4144 146.293 28.0685 144.154 26 151.428C26 151.428 30.1938 154.055 34 148.051L33.4144 146.293Z" fill="#F8F9FA"/>
<path d="M31.9298 140.047C31.9298 140.047 28.0861 134.955 23 140.833C23 140.833 26.6229 145.278 32 141.436L31.9298 140.047Z" fill="#F8F9FA"/>
<path d="M30.9232 132.779C30.9232 132.779 26.9526 128.544 22 133.143C22 133.143 26.41 136.82 31 133.826L30.9232 132.779Z" fill="#F8F9FA"/>
<path d="M31 127.54C31 127.54 28.1448 120.431 23 124.005C23 124.005 26.2322 130.254 30.8517 128.773L31 127.54Z" fill="#F8F9FA"/>
<path d="M32 119.714C32 119.714 28.8194 113.738 23 116.946C23 116.946 27.1154 122.35 31.7979 120.68L32 119.714Z" fill="#F8F9FA"/>
<path d="M34 113.629C34 113.629 32.3236 106.334 27 106C27 106 28.6883 113.7 33.3936 115L34 113.629Z" fill="#F8F9FA"/>
<path d="M35 107.738C35 107.738 33.8072 99.0404 29 99C29 99 29.6988 105.614 34.5612 109L35 107.738Z" fill="#F8F9FA"/>
<path d="M37 100.119C37 100.119 35.1798 92.6551 31 92C31 92 32.0259 99.2788 36.7245 102L37 100.119Z" fill="#F8F9FA"/>
<path d="M39 94.0435C39 94.0435 38.4735 86.9031 36.1306 86C36.1306 86 35.1802 92.5579 38.4077 95L39 94.0435Z" fill="#F8F9FA"/>
<path d="M41 88.4227C41 88.4227 39.981 80.0117 37.0179 79C37.0179 79 36.5327 85.7318 40.6086 89L41 88.4227Z" fill="#F8F9FA"/>
<path d="M43 80.6725C43 80.6725 42.4768 74.3677 40.3364 73C40.3364 73 38.8754 80.0235 42.043 82L43 80.6725Z" fill="#F8F9FA"/>
<path d="M42.7857 75.0009L40.337 64C40.337 64 38.6034 73.2687 43 77L42.7857 75.0009Z" fill="#F8F9FA"/>
<path d="M43.0156 63.7819C43.0156 63.7819 37.9601 56.8107 38.0002 56C38.0002 56 39.0154 63.5778 45 67L43.0156 63.7819Z" fill="#F8F9FA"/>
<path d="M42.6775 61C42.6775 61 37.9051 51.6692 36 51C36 51 42.0379 53.4179 43 60.6923L42.6775 61Z" fill="#F8F9FA"/>
<path d="M42.3125 82L42 81.9306C45.0778 70.2685 45.5121 62.9159 43.2186 61.2277L43.4311 61C45.8496 62.7882 45.4684 70.052 42.3125 82Z" fill="#444053"/>
<path d="M34.4059 110L34 109.877C34.2854 108.778 34.5944 107.658 34.9244 106.555C37.8049 96.9474 40.1984 88.0349 41.6674 81.2137L42 81C40.5283 87.8383 38.2003 97.0785 35.325 106.695C34.9977 107.795 34.6887 108.906 34.4059 110Z" fill="#444053"/>
<path d="M47.5819 172C47.5198 171.942 41.3055 165.955 36.5318 155.348C33.7347 149.14 31.9605 142.537 31.275 135.786C30.4276 127.346 31.5857 117.782 34.0997 109L34.4613 109.365C28.8119 129.077 32.7128 145.394 37.0684 155.086C41.7942 165.59 47.9379 171.519 48 171.577L47.5819 172Z" fill="#444053"/>
<path d="M54 140.118C54 140.118 56.4206 139.399 58 141.513C58 141.513 56.9803 142.691 54.59 141.383L54 140.118Z" fill="#6C63FF"/>
<path d="M54.0874 140C54.0874 140 52.1991 141.975 53.3993 144C53.3993 144 55.0315 143.41 54.9995 140.89L54.0874 140Z" fill="#6C63FF"/>
<path d="M52 137.608C52 137.608 52.8681 136.041 57 137.938C57 137.938 56.5552 138.984 54.7975 139C53.0399 139.015 52.5245 138.381 52 137.608Z" fill="#6C63FF"/>
<path d="M52.2562 137C52.2562 137 49.8714 136.897 50.0054 141.993C50.0054 141.993 51.526 142.192 52.475 140.514C53.424 138.837 52.923 137.968 52.2562 137Z" fill="#6C63FF"/>
<path d="M51 133.875C51 133.875 51.8909 130.684 56 132.627C56 132.627 55.2832 135.55 51.4759 134.908L51 133.875Z" fill="#6C63FF"/>
<path d="M49 129.61C49 129.61 50.9521 126.429 55 129.009C55 129.009 53.8544 131.959 49.4063 130.678L49 129.61Z" fill="#6C63FF"/>
<path d="M49 125.657C49 125.657 51.207 122.26 55 125.193C55 125.193 52.897 128.176 49.0491 126.476L49 125.657Z" fill="#F8F9FA"/>
<path d="M48 121.724C48 121.724 50.2806 118.291 54 121.113C54 121.113 51.3796 124.189 48.0473 122.486L48 121.724Z" fill="#F8F9FA"/>
<path d="M48 118.146C48 118.146 50.4328 114.539 54 116.678C54 116.678 51.3482 119.813 48.0487 118.798L48 118.146Z" fill="#F8F9FA"/>
<path d="M48 114.02C48 114.02 50.547 110.402 54 112.85C54 112.85 50.898 116.038 48.036 114.65L48 114.02Z" fill="#F8F9FA"/>
<path d="M49.0731 109.945C49.0731 109.945 52.0745 105.961 55 107.26C55 107.26 51.8758 111.486 49 110.954L49.0731 109.945Z" fill="#F8F9FA"/>
<path d="M50.1798 106.233C50.1798 106.233 53.0887 102.019 55 103.213C55 103.213 52.8695 106.472 50 107L50.1798 106.233Z" fill="#F8F9FA"/>
<path d="M51.31 101.936C51.31 101.936 53.905 98.4104 56 99.086C56 99.086 53.8175 102.705 51 103L51.31 101.936Z" fill="#F8F9FA"/>
<path d="M52.1058 98.2261C52.1058 98.2261 55.4211 94.55 57 95.046C57 95.046 54.6945 99.0352 52 98.9998L52.1058 98.2261Z" fill="#F8F9FA"/>
<path d="M53 94.635C53 94.635 56.1166 90.8287 58 91.006C58 91.006 56.1999 94.3456 53.032 95L53 94.635Z" fill="#F8F9FA"/>
<path d="M55.0344 89.8436C55.0344 89.8436 56.9054 86.106 58 86C58 86 56.6065 90.8774 55 91L55.0344 89.8436Z" fill="#F8F9FA"/>
<path d="M55.209 86.7437L56.9719 80C56.9719 80 57.39 85.9259 55 88L55.209 86.7437Z" fill="#F8F9FA"/>
<path d="M56.2149 79.6799C56.2149 79.6799 56.2839 74.4079 56 74C56 74 58.0007 78.2351 56.3423 82L56.2149 79.6799Z" fill="#F8F9FA"/>
<path d="M50.6742 134.234C50.6742 134.234 48.2688 132.877 47 136.703C47 136.703 49.1482 138.003 51 135.164L50.6742 134.234Z" fill="#F8F9FA"/>
<path d="M49.6356 129.195C49.6356 129.195 46.292 127.77 45 132.618C45 132.618 47.6205 134.369 50 130.37L49.6356 129.195Z" fill="#F8F9FA"/>
<path d="M48.9513 125.819C48.9513 125.819 46.3925 123.783 43 126.131C43 126.131 45.4155 127.914 49 126.372L48.9513 125.819Z" fill="#F8F9FA"/>
<path d="M47.9533 121.332C47.9533 121.332 45.3038 118.158 42 121.608C42 121.608 44.9416 124.364 48 122.12L47.9533 121.332Z" fill="#F8F9FA"/>
<path d="M48 118.271C48 118.271 46.2156 114.716 43 116.502C43 116.502 45.0208 119.626 47.9065 118.887L48 118.271Z" fill="#F8F9FA"/>
<path d="M49 113.975C49 113.975 46.8825 109.188 43 111.759C43 111.759 45.7388 116.088 48.8578 114.74L49 113.975Z" fill="#F8F9FA"/>
<path d="M49 110.088C49 110.088 48.0421 105.22 45 105C45 105 45.9635 110.133 48.6517 111L49 110.088Z" fill="#F8F9FA"/>
<path d="M50 106.242C50 106.242 49.4107 101.027 47 101C47 101 47.3482 104.968 49.7696 107L50 106.242Z" fill="#F8F9FA"/>
<path d="M51 101.874C51 101.874 50.0905 97.3946 48 97C48 97 48.5141 101.366 50.8642 103L51 101.874Z" fill="#F8F9FA"/>
<path d="M53 98.3633C53 98.3633 52.6426 93.5947 51.0878 93C51.0878 93 50.4514 97.3731 52.6048 99L53 98.3633Z" fill="#F8F9FA"/>
<path d="M54 94.6528C54 94.6528 53.2373 89.6075 51.0136 89C51.0136 89 50.6483 93.0501 53.707 95L54 94.6528Z" fill="#F8F9FA"/>
<path d="M55 90.1158C55 90.1158 54.6453 85.9138 53.2264 85C53.2264 85 52.2439 89.6841 54.3722 91L55 90.1158Z" fill="#F8F9FA"/>
<path d="M54.8588 85.9227L53.2253 80C53.2253 80 52.0678 84.9921 55 87L54.8588 85.9227Z" fill="#F8F9FA"/>
<path d="M54.8665 79.9531C54.8665 79.9531 51.9784 75.5197 52.0001 75C52.0001 75 52.5777 79.8225 56 82L54.8665 79.9531Z" fill="#F8F9FA"/>
<path d="M54.8165 78C54.8165 78 52.0879 72.3949 51 72C51 72 54.4522 73.4522 55 77.8242L54.8165 78Z" fill="#F8F9FA"/>
<path d="M54.2161 91L54 90.9574C56.0586 83.738 56.333 79.1857 54.8097 78.1422L54.9504 78C56.5663 79.1089 56.3124 83.6072 54.2161 91Z" fill="#444053"/>
<path d="M50.2545 107L50 106.925C50.1787 106.281 50.3736 105.626 50.5793 104.99C52.3741 99.3541 53.8739 94.127 54.7916 90.1272L55 90C54.0796 94.0081 52.6259 99.4315 50.8284 105.073C50.6226 105.712 50.4304 106.356 50.2545 107Z" fill="#444053"/>
<path d="M57.75 145C57.7143 144.964 54.0609 141.354 51.2536 134.956C49.6104 131.212 48.5674 127.23 48.1633 123.158C47.6606 118.067 48.3473 112.298 49.8279 107L50.0394 107.221C46.7184 119.11 49.0121 128.952 51.5722 134.799C54.3521 141.142 57.9615 144.708 58 144.744L57.75 145Z" fill="#444053"/>
<path d="M66.2806 159.251C65.5494 159.378 64.8333 159.577 64.1437 159.846C48.7744 165.83 49.0308 205 49.0308 205H44.5061C44.5061 205 43.0814 188.19 36.8728 164.207C31.2795 142.63 54.2195 123.292 58.8781 119.625C59.4024 119.217 59.693 119 59.693 119C82.7982 127.279 66.2806 159.251 66.2806 159.251Z" fill="#AFC0E0"/>
<path opacity="0.2" d="M61 119.675C60.4747 119.436 59.9326 119.208 59.3568 119C59.3568 119 59.0759 119.217 58.5535 119.625C53.9609 123.292 31.3465 142.632 36.8604 164.21C42.981 188.195 44.3714 205 44.3714 205H46.8797C46.8797 205 45.4893 188.189 39.3547 164.205C33.8633 142.726 56.2586 123.459 61 119.675Z" fill="white"/>
<path d="M141.152 164.213C135.103 188.196 133.74 205 133.74 205H129.333C129.333 205 129.61 164.063 113.619 159.493C113.273 159.389 112.92 159.306 112.564 159.246C112.564 159.246 96.4979 127.273 118.968 119C118.968 119 119.195 119.169 119.605 119.5C123.768 122.842 146.65 142.386 141.152 164.213Z" fill="#AFC0E0"/>
<path opacity="0.1" d="M66.3338 159.403C65.6093 159.53 64.8999 159.73 64.2166 160C61.4638 146.689 59.72 133.194 59 119.628C59.5194 119.218 59.8073 119 59.8073 119C82.6979 127.305 66.3338 159.403 66.3338 159.403Z" fill="#0073FF"/>
<path opacity="0.1" d="M119 119.496C118.128 133.139 116.222 146.685 113.301 160C112.972 159.894 112.636 159.811 112.297 159.75C112.297 159.75 97.0018 127.377 118.393 119.001C118.386 118.989 118.602 119.161 119 119.496Z" fill="#0073FF"/>
<path d="M110.967 165.376C109.388 171.55 107.537 177.884 105.415 184.378C105.415 184.378 95.3413 194.777 71.0095 184.378C71.0095 184.378 68.5786 177.588 65.9052 166.043C60.0196 140.661 52.961 92.2898 68.0005 42.6056C72.4791 27.6696 78.8447 13.3543 86.9459 0C86.9459 0 99.7942 14.6183 109.225 42.5972C118.655 70.5762 124.656 111.922 110.967 165.376Z" fill="#E3E8F4"/>
<path d="M89 102C100.046 102 109 93.0457 109 82C109 70.9543 100.046 62 89 62C77.9543 62 69 70.9543 69 82C69 93.0457 77.9543 102 89 102Z" fill="#AFC0E0"/>
<path d="M103 81.9988C103 84.6502 102.247 87.2471 100.829 89.4874C99.4108 91.7277 97.3857 93.5193 94.9892 94.6537C92.5928 95.7881 89.9235 96.2188 87.2918 95.8956C84.6602 95.5724 82.1745 94.5086 80.1237 92.8279C79.1228 92.0036 78.2399 91.0456 77.4999 89.9808C77.1675 89.5051 76.8656 89.0089 76.5958 88.4952C75.5458 86.4909 74.9981 84.2615 75 81.9988C75 81.8858 75 81.7755 75 81.6653C75.0718 78.6711 76.1007 75.7787 77.9358 73.4118C79.771 71.0449 82.316 69.328 85.1979 68.5127C86.2982 68.2094 87.4306 68.0373 88.5714 68H88.9904C90.8295 67.9989 92.6509 68.3602 94.3504 69.0632C96.0499 69.7662 97.5942 70.7971 98.8952 72.0971C100.196 73.397 101.228 74.9406 101.933 76.6396C102.637 78.3385 103 80.1596 103 81.9988Z" fill="#F8F9FA"/>
<path d="M109 42.2111C86.2119 52.9861 68 42.2111 68 42.2111C72.4581 27.4126 78.7921 13.2299 86.8513 0C86.8513 0 99.6262 14.4857 109 42.2111Z" fill="#AFC0E0"/>
<path d="M111 165C109.93 169.249 108.738 173.57 107.424 177.964C106.801 180.06 106.144 182.173 105.453 184.303C105.453 184.303 95.3965 194.871 71.1045 184.303C71.1045 184.303 70.3161 182.063 69.1336 177.964C68.2496 174.869 67.1487 170.72 66 165.67C66 165.67 75.0434 169.564 87.8792 169.564C95.8087 169.591 103.666 168.04 111 165Z" fill="#AFC0E0"/>
<path d="M107 178C106.382 180.089 105.73 182.195 105.044 184.318C105.044 184.318 95.0635 194.852 70.9559 184.318C70.9559 184.318 70.1735 182.085 69 178C68.9972 178 93.5687 185.162 107 178Z" fill="#E3E8F4"/>
<path opacity="0.2" d="M85.5163 68.5253L85.4851 68.5479L75 82.0019C75 82.1148 75 82.2278 75 82.3436C74.9981 84.6621 75.5627 86.9463 76.6452 89L89 68L85.5163 68.5253Z" fill="white"/>
<path opacity="0.2" d="M89 80.0635L79.8747 93C78.778 92.145 77.8108 91.1513 77 90.0468L87.8707 79L89 80.0635Z" fill="white"/>
<path opacity="0.2" d="M76.756 184.381C76.756 184.381 74.2847 177.587 71.567 166.045C65.5839 140.658 58.4082 92.2842 73.697 42.597C77.8068 29.1528 83.4667 16.2061 90.5684 4.00482C88.6275 1.35264 87.4149 0 87.4149 0C79.1781 13.3512 72.7051 27.6636 68.1497 42.597C52.8609 92.2842 60.0366 140.658 66.0196 166.045C68.7374 177.587 71.2086 184.381 71.2086 184.381C80.9817 188.487 88.4899 189.347 94 188.889C89.2927 188.54 83.5762 187.246 76.756 184.381Z" fill="white"/>
<path d="M262 204C262 204 275.326 187.576 274.442 171.127C274.027 164.231 275.882 157.388 279.728 151.625C281.579 148.898 283.678 146.346 286 144" stroke="#535461" stroke-width="2" stroke-miterlimit="10"/>
<path d="M285.326 133.898C284.378 136.287 285.797 145 285.797 145C285.797 145 292.713 139.85 293.661 137.46C294.116 136.313 294.113 135.024 293.653 133.879C293.193 132.734 292.314 131.825 291.209 131.352C290.104 130.88 288.863 130.883 287.76 131.36C286.657 131.838 285.781 132.75 285.326 133.898Z" fill="#F8F9FA"/>
<path d="M273.076 143.934C273.534 146.198 279.295 152 279.295 152C279.295 152 282.421 144.672 281.952 142.406C281.733 141.319 281.055 140.357 280.067 139.731C279.08 139.106 277.864 138.868 276.687 139.071C275.51 139.273 274.469 139.9 273.791 140.812C273.114 141.724 272.857 142.847 273.076 143.934Z" fill="#F8F9FA"/>
<path d="M264.956 165.523C266.465 167.441 274 170 274 170C274 170 272.78 161.431 271.271 159.511C270.538 158.621 269.518 158.081 268.428 158.008C267.339 157.936 266.267 158.335 265.441 159.121C264.616 159.907 264.104 161.018 264.014 162.214C263.924 163.411 264.264 164.599 264.961 165.523H264.956Z" fill="#F8F9FA"/>
<path d="M261.682 182.936C263.031 185.097 270.997 189 270.997 189C270.997 189 271.128 180.366 269.779 178.207C269.457 177.693 269.034 177.246 268.534 176.89C268.034 176.534 267.466 176.277 266.863 176.133C266.26 175.989 265.633 175.962 265.019 176.052C264.405 176.142 263.815 176.348 263.284 176.659C262.752 176.969 262.289 177.378 261.921 177.861C261.553 178.345 261.286 178.894 261.138 179.477C260.989 180.06 260.96 180.665 261.054 181.259C261.147 181.852 261.36 182.422 261.682 182.936Z" fill="#F8F9FA"/>
<path d="M288.065 156.701C285.673 157.624 277 156.118 277 156.118C277 156.118 282.206 149.248 284.601 148.322C285.75 147.878 287.035 147.894 288.173 148.365C289.31 148.837 290.207 149.726 290.667 150.837C291.126 151.948 291.11 153.19 290.622 154.29C290.134 155.389 289.214 156.256 288.065 156.701Z" fill="#F8F9FA"/>
<path d="M283.957 176.993C281.493 177.183 274 173.243 274 173.243C274 173.243 280.805 168.197 283.272 168.007C284.441 167.941 285.59 168.34 286.472 169.117C287.353 169.893 287.897 170.987 287.987 172.163C288.076 173.338 287.705 174.502 286.951 175.406C286.198 176.309 285.123 176.879 283.957 176.993Z" fill="#F8F9FA"/>
<path d="M277.819 196.908C275.563 197.518 268 194.897 268 194.897C268 194.897 273.51 188.743 275.765 188.137C276.301 187.992 276.858 187.962 277.405 188.048C277.951 188.135 278.477 188.336 278.951 188.641C279.426 188.946 279.839 189.348 280.169 189.825C280.499 190.301 280.738 190.843 280.873 191.419C281.008 191.995 281.036 192.594 280.955 193.181C280.875 193.769 280.687 194.333 280.404 194.843C280.12 195.353 279.746 195.798 279.302 196.152C278.859 196.506 278.355 196.763 277.819 196.908Z" fill="#F8F9FA"/>
<path opacity="0.25" d="M285.326 133.898C284.378 136.287 285.797 145 285.797 145C285.797 145 292.713 139.85 293.661 137.46C294.116 136.313 294.113 135.024 293.653 133.879C293.193 132.734 292.314 131.825 291.209 131.352C290.104 130.88 288.863 130.883 287.76 131.36C286.657 131.838 285.781 132.75 285.326 133.898Z" fill="#0073FF"/>
<path opacity="0.25" d="M273.076 143.934C273.534 146.198 279.295 152 279.295 152C279.295 152 282.421 144.672 281.952 142.406C281.733 141.319 281.055 140.357 280.067 139.731C279.08 139.106 277.864 138.868 276.687 139.071C275.51 139.273 274.469 139.9 273.791 140.812C273.114 141.724 272.857 142.847 273.076 143.934Z" fill="#0073FF"/>
<path opacity="0.25" d="M264.956 165.523C266.465 167.441 274 170 274 170C274 170 272.78 161.431 271.271 159.511C270.538 158.621 269.518 158.081 268.428 158.008C267.339 157.936 266.267 158.335 265.441 159.121C264.616 159.907 264.104 161.018 264.014 162.214C263.924 163.411 264.264 164.599 264.961 165.523H264.956Z" fill="#0073FF"/>
<path opacity="0.25" d="M261.682 182.936C263.031 185.097 270.997 189 270.997 189C270.997 189 271.128 180.366 269.779 178.207C269.457 177.693 269.034 177.246 268.534 176.89C268.034 176.534 267.466 176.277 266.863 176.133C266.26 175.989 265.633 175.962 265.019 176.052C264.405 176.142 263.815 176.348 263.284 176.659C262.752 176.969 262.289 177.378 261.921 177.861C261.553 178.345 261.286 178.894 261.138 179.477C260.989 180.06 260.96 180.665 261.054 181.259C261.147 181.852 261.36 182.422 261.682 182.936Z" fill="#0073FF"/>
<path opacity="0.25" d="M288.065 156.701C285.673 157.624 277 156.118 277 156.118C277 156.118 282.206 149.248 284.601 148.322C285.75 147.878 287.035 147.894 288.173 148.365C289.31 148.837 290.207 149.726 290.667 150.837C291.126 151.948 291.11 153.19 290.622 154.29C290.134 155.389 289.214 156.256 288.065 156.701Z" fill="#0073FF"/>
<path opacity="0.25" d="M283.957 176.993C281.493 177.183 274 173.243 274 173.243C274 173.243 280.805 168.197 283.272 168.007C284.441 167.941 285.59 168.34 286.472 169.117C287.353 169.893 287.897 170.987 287.987 172.163C288.076 173.338 287.705 174.502 286.951 175.406C286.198 176.309 285.123 176.879 283.957 176.993Z" fill="#0073FF"/>
<path opacity="0.25" d="M277.819 196.908C275.563 197.518 268 194.897 268 194.897C268 194.897 273.51 188.743 275.765 188.137C276.301 187.992 276.858 187.962 277.405 188.048C277.951 188.135 278.477 188.336 278.951 188.641C279.426 188.946 279.839 189.348 280.169 189.825C280.499 190.301 280.738 190.843 280.873 191.419C281.008 191.995 281.036 192.594 280.955 193.181C280.875 193.769 280.687 194.333 280.404 194.843C280.12 195.353 279.746 195.798 279.302 196.152C278.859 196.506 278.355 196.763 277.819 196.908Z" fill="#0073FF"/>
<path d="M262 203C262 203 280.709 193.378 286.57 178.062C288.987 171.621 293.437 166.135 299.252 162.429C302.026 160.689 304.954 159.207 308 158" stroke="#535461" stroke-width="2" stroke-miterlimit="10"/>
<path d="M311.723 148.346C310.007 150.187 308 159 308 159C308 159 315.95 157.147 317.667 155.309C318.493 154.426 318.972 153.212 318.999 151.934C319.025 150.655 318.598 149.418 317.809 148.493C317.021 147.568 315.937 147.031 314.796 147.001C313.655 146.971 312.549 147.451 311.723 148.333V148.346Z" fill="#F8F9FA"/>
<path d="M297.07 152.462C296.563 154.895 298.982 163 298.982 163C298.982 163 304.373 156.999 304.894 154.553C305.137 153.387 304.958 152.162 304.399 151.144C303.839 150.126 302.943 149.399 301.908 149.122C300.873 148.846 299.782 149.042 298.875 149.668C297.969 150.294 297.319 151.299 297.07 152.462Z" fill="#F8F9FA"/>
<path d="M280.196 168.909C280.926 171.326 287.369 177 287.369 177C287.369 177 289.582 168.647 288.853 166.242C288.679 165.667 288.396 165.132 288.018 164.668C287.641 164.204 287.177 163.82 286.652 163.538C286.128 163.255 285.554 163.08 284.962 163.021C284.371 162.963 283.774 163.024 283.206 163.199C282.637 163.374 282.109 163.66 281.65 164.042C281.191 164.424 280.811 164.893 280.532 165.424C280.252 165.954 280.079 166.535 280.021 167.133C279.964 167.731 280.023 168.334 280.196 168.909Z" fill="#F8F9FA"/>
<path d="M270.036 184.025C270.348 186.472 275.73 193 275.73 193C275.73 193 279.295 185.348 278.98 182.901C278.83 181.727 278.214 180.66 277.269 179.935C276.324 179.21 275.126 178.886 273.94 179.036C272.754 179.185 271.677 179.794 270.944 180.73C270.212 181.665 269.885 182.851 270.036 184.025Z" fill="#F8F9FA"/>
<path d="M304.396 169.997C301.943 169.906 295 165.142 295 165.142C295 165.142 302.27 160.911 304.723 161.001C305.306 161.023 305.878 161.161 306.409 161.407C306.939 161.653 307.416 162.003 307.813 162.436C308.21 162.869 308.519 163.377 308.722 163.931C308.925 164.485 309.018 165.074 308.997 165.665C308.976 166.256 308.839 166.836 308.597 167.374C308.354 167.911 308.009 168.395 307.582 168.797C307.154 169.199 306.653 169.512 306.106 169.718C305.56 169.924 304.978 170.019 304.396 169.997Z" fill="#F8F9FA"/>
<path d="M293.277 187.74C291.043 186.906 286 180.225 286 180.225C286 180.225 293.912 178.383 296.143 179.217C296.674 179.415 297.163 179.722 297.581 180.119C298 180.517 298.34 180.997 298.582 181.533C298.825 182.069 298.965 182.65 298.994 183.243C299.024 183.836 298.942 184.429 298.754 184.989C298.565 185.548 298.275 186.064 297.897 186.505C297.52 186.946 297.065 187.304 296.556 187.56C296.047 187.815 295.496 187.963 294.934 187.994C294.371 188.025 293.808 187.939 293.277 187.74Z" fill="#F8F9FA"/>
<path d="M279.752 202.934C277.312 202.511 271 196.832 271 196.832C271 196.832 278.84 193.615 281.279 194.038C282.451 194.242 283.494 194.906 284.18 195.884C284.865 196.862 285.137 198.074 284.935 199.254C284.733 200.433 284.073 201.484 283.102 202.174C282.13 202.864 280.926 203.138 279.754 202.934H279.752Z" fill="#F8F9FA"/>
<path d="M288.999 194.198L274.615 173.378C274.615 173.378 274.335 168.224 273.406 167.02C272.476 165.816 273.204 163.137 273.204 163.137C273.204 163.137 274.212 161.664 273.338 161.53C272.465 161.396 273.204 158.114 273.204 158.114L273.137 152.893C273.137 152.893 273.943 147.865 273.271 146.669C273.075 146.343 272.976 145.968 272.988 145.588C273 145.208 273.122 144.839 273.338 144.526C273.338 144.526 274.145 141.646 273.338 140.912C272.532 140.177 272.734 135.688 272.935 132.14C273.137 128.592 271.522 126.584 271.522 126.047C271.522 125.511 266.204 120.29 266.204 119.823C266.204 119.357 262.845 117.413 260.827 116.876C258.809 116.34 257.801 115.94 257.868 115.672C257.935 115.404 254.708 114.334 254.708 114.334C254.708 114.334 251.884 114.133 250.806 112.725C249.729 111.317 246.443 110.915 246.348 110.901C246.328 110.809 246.306 110.714 246.286 110.622C246.266 110.529 246.244 110.42 246.224 110.32C246.479 109.893 246.714 109.457 246.927 109.007C246.991 108.87 247.053 108.728 247.112 108.599C248.29 108.546 249.499 108.295 250.423 107.574C250.898 107.178 251.285 106.688 251.562 106.136C251.839 105.584 251.999 104.981 252.032 104.364C252.089 103.127 251.818 101.896 251.246 100.797C250.658 99.5901 249.793 98.3414 250.09 97.034C250.221 96.4754 250.56 95.9725 250.734 95.4194C251.061 94.3718 250.759 93.2209 250.249 92.2488C249.74 91.2766 249.032 90.4218 248.466 89.4804C247.744 88.2808 247.262 86.9526 247.047 85.5695C246.933 84.8432 246.888 84.0778 246.521 83.4381C246.217 82.9634 245.816 82.5587 245.343 82.2509C243.24 80.7496 240.7 79.981 238.116 80.0635C236.285 80.1278 234.46 80.6222 232.644 80.396C231.549 80.2619 230.505 79.8736 229.447 79.5579C227.191 78.8931 224.591 78.6193 222.626 79.9071C220.661 81.1949 219.88 83.7286 218.551 85.7092C217.375 87.4635 215.651 88.9329 214.755 90.7878C214.755 90.7543 214.772 90.718 214.783 90.6816C214.563 91.1109 214.395 91.5648 214.282 92.0337C213.941 93.4919 214.226 95.0172 214.582 96.4726C214.764 97.224 215.016 98.0397 215.668 98.4559C216.32 98.8722 217.244 98.78 218.016 98.9169C217.988 99.0426 217.954 99.1711 217.927 99.2996C217.127 103.072 217.779 107.006 219.755 110.319C221.731 113.632 224.884 116.081 228.588 117.178C228.588 117.315 228.588 117.457 228.588 117.586C228.586 117.97 228.563 118.355 228.518 118.737C228.518 118.737 221.758 117.34 219.942 118.29C218.125 119.24 214.562 119.966 214.025 120.497C213.487 121.027 212.144 120.631 210.946 123.779C209.748 126.927 209.602 130.137 208.054 131.601C206.507 133.065 205.703 134.079 205.636 135.151C205.569 136.224 205.838 136.489 205.23 136.827C204.623 137.165 203.752 138.568 204.021 139.104C204.021 139.104 204.357 140.442 203.282 141.11C202.207 141.778 202.339 143.118 202.339 143.118C202.339 143.118 201.936 144.593 200.995 144.926C200.055 145.258 199.447 147.471 199.447 147.471L196.388 150.977L190.345 144.3C189.893 143.8 189.259 143.499 188.585 143.465C187.911 143.43 187.25 143.664 186.748 144.116L183.781 146.786C182.636 147.063 181.601 147.679 180.812 148.552C180.165 149.214 179.644 149.989 179.275 150.837L177.649 152.295C177.138 152.928 176.825 153.697 176.751 154.506C176.677 155.315 176.844 156.128 177.232 156.843L181.103 161.114L181.128 161.15C179.664 161.335 178.371 161.804 177.383 162.673C171.603 167.76 171.533 172.45 172.409 174.587C173.285 176.724 180.61 184.965 180.61 184.965C180.61 184.965 184.867 190.488 191.014 193.427L190.966 193.474C190.846 193.602 190.726 193.753 190.608 193.893L190.507 194.022L190.415 194.15L190.306 194.312C190.275 194.354 190.247 194.399 190.219 194.443C190.191 194.488 190.141 194.569 190.104 194.636L190.029 194.765C189.984 194.848 189.936 194.935 189.892 195.024L189.847 195.111C189.791 195.228 189.735 195.348 189.682 195.474C189.662 195.519 189.645 195.566 189.626 195.611C189.592 195.698 189.556 195.787 189.522 195.89C189.489 195.994 189.48 196.005 189.461 196.064C189.441 196.122 189.402 196.237 189.374 196.326C189.346 196.416 189.335 196.452 189.318 196.513C189.301 196.575 189.262 196.709 189.237 196.809C189.211 196.91 189.206 196.927 189.189 196.991C189.153 197.145 189.116 197.304 189.086 197.471C189.086 197.533 189.063 197.597 189.052 197.661C189.03 197.773 189.01 197.888 188.993 198.005C188.979 198.086 188.971 198.167 188.96 198.248C188.948 198.329 188.932 198.469 188.918 198.58L188.892 198.838C188.892 198.96 188.87 199.089 188.862 199.217C188.862 199.296 188.862 199.374 188.848 199.452C188.848 199.664 188.825 199.877 188.822 200.1C188.688 207.922 189.147 209.07 189.147 209.07C189.147 209.07 190.096 211.565 192.716 211.743C193.1 211.772 193.487 211.751 193.866 211.682C197.362 211.079 205.563 209.673 208.455 210.21C210.193 210.531 213.412 210.056 215.704 209.623L216.306 209.509L216.726 210.838L218.055 210.475L219.175 211.126L219.889 211.534C221.215 216.026 226.606 214.495 226.606 214.495L227.871 215.227L240.848 215.562C240.848 215.562 243.647 217.238 245.441 217.763C245.654 217.828 245.872 217.876 246.093 217.906C247.296 218.002 248.504 218.025 249.709 217.973C250.703 217.948 251.473 217.906 251.473 217.906C251.473 217.906 251.341 214.389 251.151 210.453C256.111 210.246 260.508 209.936 263.17 209.47C270.1 208.254 272.991 201.966 274.055 198.606C274.375 199.979 274.602 201.373 274.735 202.776C275.018 204.003 275.377 205.21 275.813 206.391C276.191 207.341 276.688 208.24 277.291 209.067C282.402 207.327 279.309 204.718 278.231 203.578C277.153 202.438 278.973 201.503 278.973 201.503C278.973 201.503 280.372 200.567 280.249 199.695C280.126 198.824 280.048 197.888 284.618 197.955C289.189 198.022 288.999 194.198 288.999 194.198ZM217.999 151.457C218.058 151.84 218.696 155.966 219.273 157.044C219.393 157.273 219.441 158.086 219.424 159.248C216.715 159.033 213.893 158.918 213.893 158.918C213.974 159.016 214.025 159.136 214.039 159.262L213.613 159.167L212.995 159.016L217.985 151.44L217.999 151.457ZM208.113 167.156L212.802 167.9L213.196 167.961C213.062 168.691 212.98 169.429 212.953 170.171C212.953 170.24 213.059 170.324 213.21 170.422C213.145 170.791 213.114 171.165 213.118 171.539C213.193 171.911 215.385 172.71 217.899 173.375C217.865 173.509 217.831 173.637 217.798 173.757C215.578 172.593 212.079 172.048 211.676 171.182C211.273 170.316 199.361 166.154 199.361 166.154C199.361 166.154 198.927 165.925 198.177 165.561L201.312 166.154L202.174 166.067C204.128 166.555 206.112 166.917 208.113 167.151V167.156Z" fill="url(#paint0_linear)"/>
<path d="M272.955 196.889C272.955 196.889 271.107 208.012 261.728 209.657C252.349 211.302 221.043 210.973 221.043 210.973C221.043 210.973 203.144 208.407 196.672 193.333C190.2 178.259 186.039 172.268 191.587 172.005C197.135 171.742 227.054 182.077 228.76 182.207C230.466 182.337 274.605 159.3 272.955 196.889Z" fill="#434175"/>
<path opacity="0.05" d="M272.955 196.889C272.955 196.889 271.107 208.012 261.728 209.657C252.349 211.302 221.043 210.973 221.043 210.973C221.043 210.973 203.144 208.407 196.672 193.333C190.2 178.259 186.039 172.268 191.587 172.005C197.135 171.742 227.054 182.077 228.76 182.207C230.466 182.337 274.605 159.3 272.955 196.889Z" fill="#0073FF"/>
<path d="M188.356 209.291C188.356 209.291 189.323 211.81 191.981 211.988C192.371 212.016 192.763 211.995 193.148 211.926C196.698 211.319 205.029 209.901 207.963 210.44C209.729 210.766 212.996 210.284 215.322 209.85C216.87 209.566 218 209.282 218 209.282C218 209.282 215.27 200.302 214.926 200.033C214.582 199.763 202.638 192.672 202.638 192.672L193.174 192H193.145C193.145 192 191.393 192.116 189.939 193.864C188.938 195.058 188.081 197.021 188.024 200.237C187.892 208.142 188.356 209.291 188.356 209.291Z" fill="#F8F9FA"/>
<path opacity="0.05" d="M188.343 209.3C188.343 209.3 189.277 211.821 191.845 212C190.944 210.813 190.111 209.573 189.351 208.286L189.399 201.73C188.991 196.821 191.233 193.678 193 192H192.972C192.972 192 188.157 192.335 188.025 200.234C187.892 208.133 188.343 209.3 188.343 209.3Z" fill="#0073FF"/>
<path opacity="0.1" d="M228.477 195L237.228 188.353L251 175.163C251 175.163 249.513 175.094 247.27 175C246.7 175.346 245.147 176.435 245.09 177.77C245.022 179.382 241.366 177.88 239.468 178.803C237.57 179.725 228.275 191.289 226.645 191.214C225.015 191.139 223.73 190.411 223.048 191.532C223.048 191.557 223.017 191.579 223 191.604L228.477 195Z" fill="#0073FF"/>
<path opacity="0.1" d="M190 193.885C190.312 194.037 190.627 194.171 190.95 194.32C197.63 197.18 205.872 203.187 206.487 204.262C206.859 204.926 211.638 207.826 215.327 210C216.872 209.714 218 209.428 218 209.428C218 209.428 215.276 200.372 214.932 200.1C214.589 199.829 202.669 192.678 202.669 192.678L193.225 192H193.197C193.197 192 191.451 192.123 190 193.885Z" fill="#0073FF"/>
<path d="M172.406 175.346C173.263 177.463 180.444 185.601 180.444 185.601C180.444 185.601 184.995 191.553 191.464 194.331C197.933 197.11 205.916 202.945 206.509 203.99C206.892 204.67 212.053 207.782 215.678 209.922L216.49 210.397L218.292 211.444L219.245 212C219.245 212 221.463 210.222 223.655 208.432C225.847 206.643 227.987 204.89 228.023 204.79C228.087 204.592 228.943 202.342 228.747 202.211C228.644 202.142 228.192 201.225 227.361 200.164C226.473 198.986 225.321 198.034 223.999 197.385C220.95 195.996 219.644 192.834 219.644 192.834C219.644 192.834 219.367 192.623 218.915 192.345C218.134 191.85 216.878 191.139 215.95 191.019C214.494 190.836 211.792 187.86 211.792 187.86C211.792 187.86 209.943 186.668 209.217 185.149C208.524 183.698 198.291 176.652 197.343 176.002L222.153 191.973L228.09 195.799L236.602 189.13L250 175.899C250 175.899 248.198 175.81 245.565 175.699C239.055 175.421 227.491 174.974 226.03 175.304C224.841 175.582 223.614 175.662 222.399 175.54C222.399 175.54 219.107 175.69 216.928 174.537C214.749 173.384 211.315 172.845 210.919 171.992C210.523 171.139 198.843 167.033 198.843 167.033C198.843 167.033 182.941 158.567 177.265 163.596C171.588 168.625 171.547 173.231 172.406 175.346Z" fill="#F8F9FA"/>
<path d="M224 126.42L226.024 133.161L228.634 148.346L238.231 149L241.009 144.381L243.792 139.77C243.792 139.77 245.519 133.634 246.761 127.698C247.858 122.447 248.577 117.349 247.381 116.797C246.323 116.305 245.626 114.537 245.188 112.634C245.13 112.401 245.078 112.161 245.029 111.922C244.709 110.312 244.496 108.681 244.392 107.042C244.392 107.042 224.285 105.997 227.093 114.309C227.594 115.728 227.85 117.224 227.85 118.73C227.847 119.105 227.824 119.481 227.781 119.854C227.638 121.151 227.228 122.405 226.578 123.535C225.927 124.665 225.049 125.647 224 126.42Z" fill="#EE8E9E"/>
<path d="M220 125.499L220.72 137.012L222.354 146.815L224.186 151.355L225.821 176.194C225.821 176.194 241.591 178.029 245.426 176.161C245.703 176.042 245.943 175.852 246.121 175.608C250.753 168.581 249.234 148.197 249.234 148.197L251 135.034L249.822 128.202L246.978 127.898L244.781 127.663C244.781 127.663 244.286 128.277 243.572 129.225C241.633 131.8 238.078 136.866 238.306 138.98C238.63 141.876 237.913 144.836 236.801 145.298C235.688 145.759 234.773 146.547 234.578 145.759C234.383 144.972 234.186 144.773 234.381 143.653C234.576 142.534 233.529 139.113 233.529 139.113C233.529 139.113 231.765 135.1 231.881 133.389C231.996 131.679 231.686 129.703 231.161 129.244C230.636 128.785 229.919 128.321 230.507 126.204C231.095 124.087 227.928 120 227.928 120L220 125.499Z" fill="#E3E8F4"/>
<path opacity="0.1" d="M241.028 154.017L241.679 173.874L245.443 176C245.719 175.88 245.958 175.688 246.136 175.442C250.754 168.338 249.24 147.766 249.24 147.766L251 134.483L249.826 127.59L246.99 127.283C248.085 121.955 248.802 116.784 247.611 116.223C246.552 115.724 245.857 113.93 245.405 112L243.379 126.059C243.379 126.059 243.549 127.325 243.609 128.63C243.656 129.601 243.639 130.583 243.445 131.105C242.988 132.301 243.314 134.427 243.314 134.427C242.139 136.536 241.553 140.444 241.266 144.218C240.88 149.236 241.028 154.017 241.028 154.017Z" fill="#0073FF"/>
<path d="M245.247 112C245.247 112 248.642 112.414 249.717 113.804C250.792 115.193 253.623 115.385 253.623 115.385C253.623 115.385 256.857 116.444 256.789 116.708C256.721 116.972 257.731 117.372 259.753 117.9C261.776 118.428 265.128 120.349 265.128 120.813C265.128 121.277 270.449 126.435 270.449 126.966C270.449 127.496 272.067 129.467 271.863 132.985C271.66 136.504 271.459 140.925 272.268 141.653C273.077 142.381 272.268 145.227 272.268 145.227C272.053 145.539 271.935 145.904 271.928 146.28C271.92 146.656 272.023 147.026 272.225 147.345C272.899 148.537 272.092 153.501 272.092 153.501L272.157 158.662C272.157 158.662 271.416 161.902 272.293 162.035C273.17 162.169 272.157 163.622 272.157 163.622C272.157 163.622 271.416 166.271 272.361 167.46C273.306 168.65 273.572 173.747 273.572 173.747L287.999 194.312C287.999 194.312 288.202 198.084 283.623 198.017C279.043 197.95 279.096 198.878 279.244 199.737C279.391 200.596 277.965 201.524 277.965 201.524C277.965 201.524 276.146 202.45 277.224 203.575C278.302 204.701 281.399 207.28 276.282 209C275.676 208.183 275.178 207.294 274.8 206.354C274.365 205.187 274.005 203.994 273.722 202.783C273.722 202.783 273.249 197.753 272.307 197.091C271.365 196.43 271.498 193.253 271.498 193.253C271.498 193.253 272.845 190.674 270.961 189.616C269.077 188.557 241.703 173.683 241.703 173.683L241.03 153.898C241.03 153.898 240.557 139.277 243.386 134.38C243.386 134.38 243.049 132.263 243.522 131.073C243.994 129.884 243.454 126.043 243.454 126.043L245.247 112Z" fill="#F8F9FA"/>
<path opacity="0.1" d="M228.12 119.775C228.12 119.775 221.487 118.388 219.704 119.325C217.922 120.262 214.438 121.014 213.883 121.538C213.329 122.061 212.035 121.673 210.848 124.823C209.662 127.973 209.526 131.187 208.01 132.662C206.494 134.137 205.701 135.142 205.634 136.215C205.568 137.287 205.831 137.555 205.238 137.904C204.645 138.253 203.786 139.646 204.049 140.184C204.312 140.721 217.8 152.499 217.8 152.499C217.8 152.499 218.462 157.003 219.056 158.129C219.649 159.255 218.396 174.951 217.077 176.024C215.757 177.096 225.985 176.998 225.985 176.998C225.985 176.998 226.445 166.709 226.842 166.171C227.238 165.634 226.565 154.63 226.565 154.63C226.565 154.63 226.498 145.248 227.357 142.768C228.217 140.288 228.12 132.054 228.12 132.054C228.12 132.054 228.879 127.108 229.802 125.954C230.725 124.8 228.12 119.775 228.12 119.775Z" fill="#0073FF"/>
<path d="M228.073 119.762C228.073 119.762 221.175 118.398 219.322 119.32C217.47 120.241 213.848 120.966 213.286 121.494C212.724 122.022 211.367 121.624 210.116 124.72C208.866 127.816 208.745 130.978 207.165 132.427C205.586 133.877 204.765 134.865 204.696 135.919C204.627 136.973 204.904 137.236 204.287 137.565C203.67 137.894 202.777 139.277 203.051 139.803C203.325 140.329 217.32 151.923 217.32 151.923C217.32 151.923 218.005 156.35 218.622 157.456C219.239 158.563 217.936 173.986 216.565 175.04C215.193 176.094 225.826 175.998 225.826 175.998C225.826 175.998 226.307 165.886 226.719 165.36C227.131 164.835 226.431 154.017 226.431 154.017C226.431 154.017 226.365 144.797 227.255 142.359C228.145 139.922 228.047 131.819 228.047 131.819C228.047 131.819 228.837 126.958 229.793 125.826C230.75 124.695 228.073 119.762 228.073 119.762Z" fill="#F8F9FA"/>
<path opacity="0.1" d="M227.265 114.103C227.761 115.482 228.014 116.935 228.014 118.399C231.188 119.325 234.586 119.177 237.665 117.978C240.744 116.779 243.326 114.598 245 111.783C244.684 110.218 244.474 108.634 244.371 107.041C244.371 107.041 224.492 106.026 227.265 114.103Z" fill="#0073FF"/>
<path d="M217 103.514C217.003 107.484 218.481 111.302 221.129 114.18C223.776 117.057 227.391 118.775 231.229 118.979C235.066 119.184 238.833 117.858 241.752 115.277C244.672 112.695 246.521 109.055 246.919 105.106C247.317 101.157 246.234 97.2001 243.891 94.0524C241.549 90.9047 238.128 88.8058 234.332 88.1885C230.536 87.5712 226.656 88.4826 223.492 90.7348C220.327 92.9869 218.12 96.4081 217.325 100.293C217.108 101.352 216.999 102.431 217 103.514Z" fill="#EE8E9E"/>
<path d="M206.913 139L203.38 140.131C203.38 140.131 203.701 141.461 202.673 142.126C201.645 142.791 201.775 144.123 201.775 144.123C201.775 144.123 201.389 145.584 200.49 145.917C199.591 146.249 199.011 148.431 199.011 148.431L196.056 151.957C196.056 151.957 194.963 152.887 195.158 153.353C195.352 153.82 194 153.951 194 153.951L194.707 165.802L200.811 167L204.589 166.601L207.674 165.402L210.372 163.726L211.603 160.494L217 151.982L206.913 139Z" fill="#F8F9FA"/>
<path d="M194.214 154.618C194.214 154.618 186.16 142.333 180.131 148.964C174.102 155.594 182.578 166.341 184.561 165.992C186.544 165.643 196 165.086 196 165.086L194.214 154.618Z" fill="#EE8E9E"/>
<path d="M185.298 146.553L177.782 153.324C176.334 154.629 176.219 156.859 177.525 158.305L185.874 167.552C187.18 168.998 189.412 169.113 190.86 167.808L198.376 161.037C199.823 159.732 199.938 157.502 198.633 156.056L190.284 146.809C188.978 145.363 186.745 145.248 185.298 146.553Z" fill="#30374E"/>
<path opacity="0.1" d="M185.298 146.553L177.782 153.324C176.334 154.629 176.219 156.859 177.525 158.305L185.874 167.552C187.18 168.998 189.412 169.113 190.86 167.808L198.376 161.037C199.823 159.732 199.938 157.502 198.633 156.056L190.284 146.809C188.978 145.363 186.745 145.248 185.298 146.553Z" fill="#0073FF"/>
<path d="M185.526 145.588L178.011 152.36C176.563 153.665 176.448 155.895 177.754 157.341L186.103 166.587C187.409 168.034 189.641 168.148 191.089 166.844L198.604 160.072C200.052 158.768 200.167 156.538 198.861 155.091L190.512 145.845C189.206 144.399 186.974 144.284 185.526 145.588Z" fill="#30374E"/>
<path d="M188 160C190.209 160 192 158.433 192 156.5C192 154.567 190.209 153 188 153C185.791 153 184 154.567 184 156.5C184 158.433 185.791 160 188 160Z" fill="#6C63FF"/>
<path opacity="0.1" d="M188 160C190.209 160 192 158.433 192 156.5C192 154.567 190.209 153 188 153C185.791 153 184 154.567 184 156.5C184 158.433 185.791 160 188 160Z" fill="#0073FF"/>
<path d="M188.5 160C190.433 160 192 158.209 192 156C192 153.791 190.433 152 188.5 152C186.567 152 185 153.791 185 156C185 158.209 186.567 160 188.5 160Z" fill="#F8F9FA"/>
<path d="M189 157.164C188.932 166.04 207.322 167.921 207.322 167.921L212.018 168.667L214.123 169L215 160.336C215 160.336 214.035 160.192 212.83 159.912C211.051 159.497 208.745 158.783 208.261 157.78C207.455 156.1 189.065 148.291 189 157.164Z" fill="#EE8E9E"/>
<path opacity="0.1" d="M217 100.241C217.417 100.272 217.811 100.451 218.113 100.747C218.625 101.302 218.653 102.286 219.318 102.628C219.566 102.738 219.841 102.771 220.108 102.722C221.869 102.466 222.89 100.445 224.579 99.8763C225.541 99.5576 226.601 99.7654 227.541 100.135C227.92 100.256 228.259 100.48 228.524 100.781C229.08 101.53 228.693 102.631 228.955 103.538C229.319 104.796 230.788 105.297 232.06 105.462C233.331 105.627 234.764 105.718 235.612 106.7C236.213 107.397 236.366 108.407 236.244 109.32C236.169 109.639 236.169 109.972 236.244 110.291C236.595 111.306 238.314 111.144 238.762 110.353C239.09 109.77 238.99 109.286 239.763 109.124C240.286 109.013 240.901 109.238 241.385 109.409C242.734 109.884 244.155 110.108 245.581 110.069C246.482 108.089 246.965 105.938 246.998 103.755C247.031 101.572 246.613 99.4058 245.771 97.3992C244.93 95.3926 243.683 93.5902 242.114 92.11C240.545 90.6297 238.687 89.5049 236.664 88.809C234.64 88.1132 232.496 87.862 230.371 88.0718C228.246 88.2817 226.188 88.9479 224.332 90.0269C222.476 91.1059 220.864 92.5733 219.6 94.3333C218.337 96.0934 217.451 98.1063 217 100.241Z" fill="#0073FF"/>
<path d="M236.389 110.284C236.313 109.964 236.313 109.63 236.389 109.31C236.511 108.389 236.358 107.378 235.746 106.682C234.896 105.697 233.422 105.603 232.127 105.44C230.832 105.278 229.336 104.775 228.965 103.514C228.698 102.604 229.101 101.496 228.525 100.746C228.257 100.443 227.912 100.22 227.528 100.101C226.567 99.7267 225.487 99.5298 224.507 99.838C222.787 100.409 221.747 102.441 219.953 102.692C219.681 102.742 219.401 102.709 219.148 102.598C218.471 102.255 218.442 101.268 217.921 100.714C217.102 99.8408 215.546 100.403 214.543 99.7552C213.888 99.33 213.636 98.5052 213.455 97.7432C213.098 96.2648 212.811 94.7151 213.154 93.2367C213.741 90.708 215.988 88.9757 217.405 86.818C218.74 84.806 219.488 82.2516 221.494 80.9274C223.501 79.6031 226.077 79.8971 228.338 80.5735C229.398 80.8903 230.447 81.2841 231.543 81.4297C233.368 81.6551 235.199 81.1443 237.035 81.0929C239.629 81.0085 242.178 81.788 244.287 83.3105C244.763 83.6239 245.166 84.0354 245.472 84.5177C245.838 85.1684 245.886 85.9447 245.996 86.681C246.211 88.0856 246.692 89.4354 247.413 90.6567C247.98 91.6128 248.691 92.4804 249.204 93.4679C249.717 94.4553 250.018 95.6226 249.689 96.6843C249.516 97.2551 249.173 97.7489 249.046 98.3225C248.745 99.6496 249.612 100.917 250.205 102.141C250.778 103.258 251.05 104.507 250.992 105.763C250.959 106.388 250.799 107 250.521 107.56C250.243 108.12 249.854 108.617 249.377 109.019C248.422 109.773 247.167 110.024 245.957 110.064C244.476 110.114 242.999 109.891 241.598 109.405C241.102 109.233 240.465 109.008 239.946 109.119C239.158 109.282 239.26 109.767 238.926 110.352C238.495 111.151 236.746 111.303 236.389 110.284Z" fill="#F8F9FA"/>
<path opacity="0.1" d="M227.981 196L236.535 189.365L250 176.199C250 176.199 248.189 176.111 245.543 176C245.061 176.487 244.632 177.106 244.604 177.797C244.538 179.406 240.964 177.91 239.109 178.831C237.253 179.752 228.167 191.292 226.574 191.217C224.98 191.142 223.724 190.415 223.058 191.535C223.044 191.561 223.029 191.586 223.011 191.61C222.746 191.91 222.392 192.118 222 192.204L227.981 196Z" fill="#0073FF"/>
<path d="M211 195.192L215.331 208.853L216.011 211L218.074 210.445L222.621 209.211L242.877 203.714C242.877 203.714 246.683 203.664 250.175 201.792C254.035 199.718 258.389 198.675 262.762 199.08C265.44 199.327 268.419 198.187 270.903 193.677C270.903 193.677 276.517 177.314 262.347 172.599C248.177 167.885 247.503 175.095 247.503 175.095C247.503 175.095 247.43 175.134 247.312 175.212C246.751 175.559 245.221 176.649 245.165 177.985C245.097 179.599 241.496 178.096 239.626 179.02C237.757 179.943 228.6 191.522 226.995 191.447C225.389 191.373 224.123 190.643 223.452 191.766C223.452 191.791 223.421 191.814 223.404 191.838C222.91 192.512 221.423 192.671 220.437 192.695C219.901 192.712 219.511 192.695 219.511 192.695L219.385 192.734L218.335 193.023L211 195.192Z" fill="#F8F9FA"/>
<path opacity="0.1" d="M212 168.67L214.118 169L215 160.42C215 160.42 214.029 160.277 212.817 160C213.139 161.189 212.41 165.823 212 168.67Z" fill="#0073FF"/>
<path opacity="0.1" d="M266.1 128.207C266.1 128.207 272.288 126.395 270.756 144.105C269.225 161.814 257.783 173.001 257.783 173.001C257.783 173.001 244.609 178.836 238.688 177.898C232.766 176.96 228.442 176.771 228.442 176.771C226.579 175.821 224.539 175.273 222.453 175.162C219.125 175.027 212.141 172.948 212.007 172.277C211.873 171.607 213.737 161.746 212.938 161.008C212.938 161.008 222.252 161.394 223.186 162.073C224.119 162.752 225.446 162.265 226.444 162.073C227.442 161.882 230.505 159.197 236.558 161.546C236.558 161.546 238.621 161.746 239.42 161.211C240.219 160.676 241.499 161.076 241.499 161.076C241.499 161.076 242.754 160.605 242.947 160.324C243.139 160.042 244.741 160.324 244.741 160.324C244.836 160.371 244.94 160.395 245.046 160.396C245.152 160.397 245.257 160.374 245.352 160.329C245.448 160.284 245.533 160.218 245.6 160.136C245.668 160.053 245.716 159.957 245.741 159.853C245.95 159.304 246.267 158.803 246.672 158.38C246.672 158.38 248.469 148.184 251.862 144.361C251.862 144.361 252.859 143.488 252.594 142.414C252.328 141.341 258.124 126.057 266.1 128.207Z" fill="#0073FF"/>
<path d="M266.1 127.202C266.1 127.202 272.285 125.427 270.757 142.779C269.229 160.13 257.771 171.102 257.771 171.102C257.771 171.102 244.601 176.819 238.68 175.9C232.76 174.981 228.438 174.782 228.438 174.782C226.575 173.851 224.536 173.314 222.451 173.206C219.126 173.073 212.141 171.036 212.007 170.379C211.873 169.722 213.736 160.061 212.94 159.338C212.94 159.338 222.252 159.716 223.183 160.381C224.113 161.047 225.446 160.569 226.443 160.381C227.44 160.194 230.5 157.566 236.554 159.865C236.554 159.865 238.616 160.061 239.412 159.537C240.209 159.012 241.494 159.404 241.494 159.404C241.494 159.404 242.74 158.943 242.938 158.681C243.137 158.419 244.735 158.681 244.735 158.681C244.829 158.727 244.933 158.751 245.039 158.752C245.144 158.753 245.249 158.731 245.344 158.687C245.44 158.643 245.524 158.579 245.592 158.498C245.659 158.418 245.707 158.324 245.732 158.223C245.941 157.684 246.257 157.192 246.663 156.776C246.663 156.776 248.459 146.787 251.851 143.041C251.851 143.041 252.848 142.185 252.583 141.136C252.317 140.087 258.104 125.099 266.1 127.202Z" fill="#F8F9FA"/>
<path opacity="0.1" d="M218 193.32L227.149 204C227.184 203.969 227.207 203.947 227.207 203.938C227.277 203.736 228.176 201.462 227.969 201.327C227.763 201.192 226.168 197.848 222.982 196.443C221.035 195.6 219.76 194.057 219.065 193L218 193.32Z" fill="#0073FF"/>
<path opacity="0.1" d="M218.191 211.455L219.174 212C219.174 212 221.46 210.256 223.72 208.5C225.981 206.745 228.187 205.025 228.224 204.927C228.29 204.733 229.173 202.526 228.97 202.398C228.864 202.329 228.398 201.43 227.541 200.389C221.449 198.753 225.326 202.795 225.844 202.981C225.844 202.981 218.414 201.345 218.02 209.062C217.966 209.863 218.023 210.668 218.191 211.455Z" fill="#0073FF"/>
<path d="M225.797 214.62L227.041 215.33L239.671 215.652C239.671 215.652 242.378 217.278 244.135 217.771C244.342 217.834 244.555 217.881 244.77 217.909C245.939 218.002 247.112 218.024 248.284 217.974C249.25 217.949 250 217.909 250 217.909C250 217.909 249.401 202.198 248.951 200.573C248.737 199.782 247.68 199.956 246.637 200.351C245.853 200.665 245.097 201.043 244.377 201.481C244.377 201.481 239.017 201.993 238.166 202.448C237.315 202.903 234.899 202.177 233.394 202.448C231.89 202.719 229.213 200.701 229.213 200.701C221.89 198.317 226.009 202.765 226.53 202.96C226.53 202.96 219.408 201.334 219.016 209.003C218.623 216.671 225.797 214.62 225.797 214.62Z" fill="#F8F9FA"/>
<path d="M244.006 208.562C244.144 211.82 246.731 215.863 248.271 218C249.245 217.976 250 217.935 250 217.935C250 217.935 249.397 202.187 248.943 200.557C248.728 199.765 247.663 199.938 246.612 200.335C245.347 202.67 243.895 205.936 244.006 208.562Z" fill="#F8F9FA"/>
<path opacity="0.1" d="M244.006 208.562C244.144 211.82 246.731 215.863 248.271 218C249.245 217.976 250 217.935 250 217.935C250 217.935 249.397 202.187 248.943 200.557C248.728 199.765 247.663 199.938 246.612 200.335C245.347 202.67 243.895 205.936 244.006 208.562Z" fill="#0073FF"/>
<path opacity="0.05" d="M242.204 208.981C243.039 212.12 243.031 215.642 244.361 217.77C244.56 217.834 244.764 217.88 244.971 217.909C246.095 218.002 247.223 218.024 248.35 217.974C249.279 217.949 250 217.909 250 217.909C250 217.909 249.424 202.183 248.992 200.557C248.786 199.765 247.769 199.939 246.766 200.334C246.012 200.648 245.286 201.026 244.593 201.465C244.593 201.465 241.138 204.962 242.204 208.981Z" fill="#0073FF"/>
<path opacity="0.1" d="M198 176C198 176 204.495 178.197 210 186L198 176Z" fill="#0073FF"/>
<g opacity="0.1">
<path opacity="0.1" d="M249.671 96.3812C249.661 96.4285 249.648 96.4751 249.632 96.5209C249.571 96.7119 249.497 96.8986 249.411 97.0798C249.477 96.8396 249.564 96.6058 249.671 96.3812Z" fill="#0073FF"/>
<path opacity="0.1" d="M213.551 93.1536C213.662 92.6874 213.828 92.2361 214.046 91.8094C214.013 91.924 213.976 92.0386 213.948 92.1559C213.61 93.6035 213.892 95.1209 214.245 96.5684C214.427 97.3145 214.673 98.1221 215.319 98.5385C216.312 99.1728 217.837 98.6195 218.653 99.4746C219.168 100.02 219.196 100.986 219.867 101.322C220.117 101.431 220.394 101.463 220.662 101.414C222.43 101.162 223.459 99.1784 225.157 98.6195C226.125 98.3066 227.188 98.5106 228.137 98.8766C228.516 98.9937 228.857 99.212 229.121 99.5082C229.681 100.243 229.292 101.327 229.555 102.216C229.921 103.451 231.398 103.943 232.677 104.102C233.955 104.262 235.396 104.354 236.249 105.321C236.853 106.003 237.007 106.997 236.884 107.894C236.81 108.208 236.81 108.534 236.884 108.847C237.237 109.845 238.965 109.686 239.402 108.909C239.732 108.336 239.634 107.861 240.412 107.702C240.935 107.593 241.553 107.813 242.04 107.981C243.422 108.457 244.881 108.676 246.342 108.627C247.537 108.585 248.779 108.347 249.719 107.604C250.148 107.262 250.501 106.833 250.754 106.346C250.535 107.233 250.034 108.025 249.327 108.604C248.387 109.342 247.148 109.588 245.95 109.627C244.49 109.676 243.032 109.458 241.651 108.981C241.161 108.814 240.532 108.593 240.02 108.702C239.242 108.861 239.34 109.336 239.013 109.909C238.56 110.697 236.834 110.845 236.478 109.848C236.404 109.534 236.404 109.208 236.478 108.895C236.602 107.992 236.45 107.003 235.846 106.321C234.99 105.357 233.55 105.265 232.271 105.105C230.993 104.946 229.516 104.454 229.152 103.219C228.886 102.328 229.286 101.244 228.718 100.509C228.452 100.213 228.111 99.9946 227.731 99.877C226.783 99.511 225.72 99.3182 224.752 99.62C223.051 100.179 222.024 102.169 220.256 102.414C219.988 102.463 219.712 102.431 219.462 102.322C218.79 101.987 218.763 101.02 218.248 100.478C217.439 99.6228 215.906 100.173 214.916 99.5389C214.267 99.1225 214.021 98.3149 213.839 97.5688C213.492 96.1185 213.21 94.6011 213.551 93.1536Z" fill="#0073FF"/>
</g>
<path opacity="0.1" d="M250.796 146.21C249.475 147.867 247.965 149.401 246.795 151.153C245.625 152.906 244.798 154.952 245.043 157C246.256 155.846 246.807 154.254 247.571 152.808C248.862 150.36 250.796 148.284 252.421 146.033C252.724 145.602 254.728 143.121 253.718 143.003C252.888 142.904 251.248 145.645 250.796 146.21Z" fill="#0073FF"/>
<defs>
<linearGradient id="paint0_linear" x1="230.5" y1="217.987" x2="230.5" y2="78.9964" gradientUnits="userSpaceOnUse">
<stop stop-color="#808080" stop-opacity="0.25"/>
<stop offset="0.54" stop-color="#808080" stop-opacity="0.12"/>
<stop offset="1" stop-color="#808080" stop-opacity="0.1"/>
</linearGradient>
</defs>
</svg>
