<svg width="269" height="42" viewBox="0 0 269 42" fill="none" xmlns="http://www.w3.org/2000/svg">
<path d="M17.496 2.584C20.5573 2.584 23.3573 3.34933 25.896 4.88C28.472 6.37333 30.5067 8.408 32 10.984C33.5307 13.5227 34.296 16.3227 34.296 19.384V24.2C34.296 27.2613 33.5307 30.08 32 32.656C30.5067 35.1947 28.472 37.2293 25.896 38.76C23.3573 40.2533 20.5573 41 17.496 41H0.192V2.584H17.496ZM12.064 32.096H16.376C17.944 32.096 19.2693 31.5547 20.352 30.472C21.4347 29.3893 21.976 28.064 21.976 26.496V16.92C21.976 15.352 21.4347 14.0267 20.352 12.944C19.2693 11.8613 17.944 11.32 16.376 11.32H12.064V32.096ZM54.1922 11.824C57.0669 11.824 59.5309 12.384 61.5842 13.504C63.6749 14.5867 65.2615 16.0987 66.3442 18.04C67.4642 19.9813 68.0242 22.2027 68.0242 24.704V28.176H49.3762V30.864C49.3762 32.1333 49.7682 33.104 50.5522 33.776C51.3735 34.448 52.4189 34.784 53.6882 34.784C54.9949 34.784 55.9842 34.392 56.6562 33.608C57.3655 32.7867 57.7202 31.6667 57.7202 30.248H67.9682C67.9682 32.376 67.4082 34.2987 66.2882 36.016C65.2055 37.7333 63.6002 39.096 61.4722 40.104C59.3815 41.0747 56.8989 41.56 54.0242 41.56H53.1842C50.1975 41.56 47.5095 41.0187 45.1202 39.936C42.7682 38.816 40.9015 37.2107 39.5202 35.12C38.1762 32.992 37.5042 30.472 37.5042 27.56V25.824C37.5042 22.912 38.1389 20.4107 39.4082 18.32C40.7149 16.192 42.5255 14.5867 44.8402 13.504C47.1549 12.384 49.8055 11.824 52.7922 11.824H54.1922ZM53.2402 18.6C52.1575 18.6 51.2429 18.992 50.4962 19.776C49.7495 20.5227 49.3762 21.4373 49.3762 22.52V23.304H57.1042V22.52C57.1042 21.4373 56.7309 20.5227 55.9842 19.776C55.2375 18.992 54.3229 18.6 53.2402 18.6ZM100.985 12.384L91.633 41H78.809L69.569 12.384H81.385L85.585 28.736H85.977L90.177 12.384H100.985ZM147.778 41H134.45L129.802 22.576H129.466L124.818 41H111.266L100.794 2.584H112.946L118.378 23.92H118.602L124.09 2.584H136.13L141.506 23.92H141.73L147.162 2.584H158.194L147.778 41ZM176.197 11.824C178.997 11.824 181.517 12.44 183.757 13.672C186.035 14.8667 187.808 16.5467 189.077 18.712C190.384 20.8773 191.037 23.3413 191.037 26.104V27.28C191.037 30.08 190.384 32.5627 189.077 34.728C187.808 36.8933 186.035 38.5733 183.757 39.768C181.517 40.9627 178.997 41.56 176.197 41.56H174.405C171.605 41.56 169.067 40.9627 166.789 39.768C164.549 38.536 162.776 36.8373 161.469 34.672C160.2 32.5067 159.565 30.0427 159.565 27.28V26.104C159.565 23.3413 160.2 20.8773 161.469 18.712C162.776 16.5467 164.549 14.8667 166.789 13.672C169.067 12.44 171.605 11.824 174.405 11.824H176.197ZM175.301 18.6C174.219 18.6 173.304 18.992 172.557 19.776C171.811 20.5227 171.437 21.4373 171.437 22.52V30.864C171.437 31.9467 171.811 32.88 172.557 33.664C173.304 34.4107 174.219 34.784 175.301 34.784C176.384 34.784 177.299 34.4107 178.045 33.664C178.792 32.88 179.165 31.9467 179.165 30.864V22.52C179.165 21.4373 178.792 20.5227 178.045 19.776C177.299 18.992 176.384 18.6 175.301 18.6ZM212.388 11.824C214.852 11.824 216.756 12.5147 218.1 13.896C219.481 15.24 220.172 17.1067 220.172 19.496V20.448L220.06 22.576L219.948 23.976H210.876V22.632C210.876 21.848 210.633 21.1947 210.148 20.672C209.7 20.112 209.158 19.832 208.524 19.832C207.852 19.832 207.273 20.112 206.788 20.672C206.34 21.1947 206.116 21.848 206.116 22.632V41H195.308V12.384H203.596L204.828 16.528C205.052 16.08 205.481 15.4827 206.116 14.736C206.75 13.9893 207.609 13.3173 208.692 12.72C209.774 12.1227 211.006 11.824 212.388 11.824ZM234.724 0.679998V41H223.636V0.679998H234.724ZM259.524 41L258.516 37.696C256.462 40.272 254.054 41.56 251.292 41.56C248.977 41.56 246.886 41.0187 245.02 39.936C243.19 38.8533 241.734 37.2293 240.652 35.064C239.606 32.8613 239.084 30.1733 239.084 27V26.384C239.084 23.2107 239.55 20.5413 240.484 18.376C241.454 16.1733 242.742 14.5307 244.348 13.448C245.99 12.3653 247.838 11.824 249.892 11.824C253.401 11.824 255.865 13 257.284 15.352V0.679998H268.372V41H259.524ZM253.812 18.824C252.841 18.824 252.02 19.216 251.348 20C250.676 20.7467 250.34 21.6613 250.34 22.744V30.864C250.34 31.9467 250.676 32.88 251.348 33.664C252.02 34.4107 252.841 34.784 253.812 34.784C254.782 34.784 255.604 34.4107 256.276 33.664C256.948 32.88 257.284 31.9467 257.284 30.864V22.744C257.284 21.6613 256.948 20.7467 256.276 20C255.604 19.216 254.782 18.824 253.812 18.824Z" fill="url(#paint0_linear)"/>
<defs>
<linearGradient id="paint0_linear" x1="-16" y1="21.5" x2="342.48" y2="15.8287" gradientUnits="userSpaceOnUse">
<stop stop-color="#F8F9FA"/>
<stop offset="1" stop-color="#2269A9"/>
</linearGradient>
</defs>
</svg>
